<svg xmlns="http://www.w3.org/2000/svg" width="76" height="20" viewBox="0 0 76 20">
  <path fill="#231F20" d="M22.452 0l2.58 2.614h10.323V0zM25.032 17.386L22.452 20h12.903v-2.614zM32.774 8.693h-7.742l-2.58 2.614h10.322zM52.5 0l-8.907 8.892 1.825 1.849L56.148 0zM40.243.016l.02 5.49 2.59 2.604-.03-8.105zM40.258 20h2.58v-2.353l-2.58-2.614zM45.816 14.762L50.869 20l3.638-.012-6.867-7.075zM0 0l2.58 2.614h14.968V0zM7.484 20h2.58v-9.804l-2.58-2.614z"/>
  <path fill="#EC008C" d="M66.129 0a9.763 9.763 0 0 0-6.712 2.677l1.824 1.848a7.21 7.21 0 0 1 4.888-1.91c4.02 0 7.29 3.313 7.29 7.385 0 4.072-3.27 7.386-7.29 7.386-1.846 0-3.533-.7-4.819-1.85l-1.827 1.85A9.763 9.763 0 0 0 66.129 20C71.572 20 76 15.514 76 10S71.572 0 66.129 0"/>
</svg>
